<?xml version="1.0" standalone="no"?>
<!DOCTYPE svg PUBLIC "-//W3C//DTD SVG 20010904//EN"
 "http://www.w3.org/TR/2001/REC-SVG-20010904/DTD/svg10.dtd">
<svg version="1.0" xmlns="http://www.w3.org/2000/svg"
 width="500.000000pt" height="500.000000pt" viewBox="0 0 500.000000 500.000000"
 preserveAspectRatio="xMidYMid meet">
<metadata>
Created by potrace 1.11, written by Peter Selinger 2001-2013
</metadata>
<g transform="translate(0.000000,500.000000) scale(0.100000,-0.100000)"
fill="#000000" stroke="none">
<path d="M2210 4929 c-861 -119 -1558 -623 -1923 -1389 -87 -183 -164 -419
-192 -590 -3 -19 -10 -60 -15 -90 -17 -104 -22 -175 -25 -320 -7 -477 106
-893 356 -1315 60 -101 171 -255 238 -329 66 -74 216 -221 266 -261 28 -22 56
-46 63 -53 8 -7 57 -43 110 -80 316 -222 652 -360 1038 -423 116 -19 177 -23
369 -23 240 0 324 8 522 50 327 69 718 252 977 456 344 272 607 613 760 988
15 36 31 74 36 85 54 124 114 374 140 584 13 99 16 421 6 506 -3 28 -8 68 -11
90 -8 72 -36 219 -51 275 -8 30 -21 79 -29 108 -38 137 -134 360 -218 507
-108 189 -228 347 -397 524 -34 34 -173 157 -230 202 -277 219 -680 401 -1035
468 -33 6 -87 16 -120 22 -75 14 -547 20 -635 8z"/>
</g>
</svg>
